<svg width="21" height="28" viewBox="0 0 21 28" fill="none" xmlns="http://www.w3.org/2000/svg">
<g id="Group 15254">
<path id="Vector" d="M2.52575 0.911096C2.56614 0.910806 2.60653 0.910515 2.64815 0.910215C2.71426 0.910124 2.71426 0.910124 2.7817 0.910032C2.82876 0.909772 2.87581 0.909512 2.9243 0.909244C3.08234 0.90844 3.24039 0.908005 3.39843 0.907573C3.51161 0.907086 3.62478 0.90658 3.73795 0.906058C4.1099 0.904454 4.48185 0.903418 4.8538 0.902469C4.9487 0.902217 4.9487 0.902217 5.04552 0.901959C5.64211 0.900386 6.2387 0.899012 6.8353 0.898155C6.9734 0.897953 7.1115 0.897748 7.2496 0.89754C7.28392 0.897489 7.31824 0.897437 7.35361 0.897384C7.90959 0.896515 8.46556 0.894414 9.02154 0.891814C9.59266 0.889167 10.1638 0.887704 10.7349 0.887309C11.0554 0.887055 11.376 0.886284 11.6965 0.884255C11.9981 0.882372 12.2996 0.881941 12.6012 0.88262C12.7118 0.882617 12.8224 0.88209 12.933 0.880997C13.0842 0.879583 13.2352 0.880068 13.3864 0.881019C13.4519 0.879732 13.4519 0.879732 13.5186 0.878418C13.8548 0.883693 14.0369 1.00118 14.2817 1.22492C14.3292 1.26822 14.3768 1.31152 14.4258 1.35613C14.4697 1.39999 14.5136 1.44386 14.5588 1.48905C14.5837 1.51376 14.6085 1.53847 14.6341 1.56393C14.7161 1.64549 14.7977 1.72741 14.8793 1.80933C14.9385 1.8684 14.9978 1.92745 15.057 1.98649C15.2169 2.14592 15.3765 2.30566 15.536 2.46549C15.7033 2.63306 15.8708 2.80038 16.0384 2.96774C16.3194 3.2486 16.6002 3.52967 16.8809 3.81086C17.2053 4.13577 17.53 4.46031 17.8549 4.78466C18.1343 5.06359 18.4135 5.34272 18.6925 5.62202C18.859 5.78865 19.0256 5.95521 19.1923 6.12159C19.3489 6.27788 19.5052 6.43443 19.6614 6.59117C19.7187 6.6486 19.776 6.70594 19.8335 6.76319C19.912 6.84142 19.9902 6.91995 20.0683 6.99856C20.1121 7.04241 20.1559 7.08625 20.201 7.13142C20.4021 7.35564 20.4854 7.51557 20.4859 7.81915C20.4866 7.91223 20.4866 7.91223 20.4873 8.0072C20.487 8.0759 20.4867 8.1446 20.4865 8.2133C20.4867 8.28641 20.487 8.35953 20.4874 8.43264C20.4882 8.63359 20.4881 8.83452 20.4878 9.03547C20.4877 9.2522 20.4884 9.46892 20.4891 9.68564C20.4901 10.1103 20.4904 10.535 20.4903 10.9597C20.4902 11.3051 20.4904 11.6504 20.4908 11.9957C20.4909 12.0952 20.491 12.1947 20.4911 12.2941C20.4912 12.3684 20.4912 12.3684 20.4913 12.4441C20.4922 13.3809 20.4922 14.3176 20.4918 15.2543C20.4916 16.1105 20.4926 16.9668 20.4943 17.823C20.496 18.7025 20.4968 19.582 20.4966 20.4615C20.4965 20.9551 20.4967 21.4488 20.498 21.9424C20.4991 22.3629 20.4993 22.7833 20.4983 23.2038C20.4978 23.4182 20.4978 23.6325 20.4988 23.8469C20.4998 24.0435 20.4995 24.2401 20.4984 24.4368C20.4981 24.5408 20.499 24.6448 20.5 24.7488C20.4932 25.4598 20.2565 25.997 19.7721 26.5089C19.4023 26.858 18.9075 27.0937 18.3986 27.0949C18.3416 27.0951 18.2847 27.0954 18.226 27.0957C18.1634 27.0957 18.1008 27.0957 18.0363 27.0958C17.9698 27.096 17.9033 27.0962 17.8348 27.0964C17.6501 27.097 17.4653 27.0973 17.2806 27.0976C17.0814 27.0979 16.8822 27.0985 16.683 27.099C16.2018 27.1003 15.7205 27.101 15.2393 27.1017C15.1034 27.1019 14.9674 27.1021 14.8314 27.1023C13.9867 27.1036 13.142 27.1047 12.2973 27.1053C12.1017 27.1055 11.906 27.1056 11.7104 27.1058C11.6374 27.1058 11.6374 27.1058 11.563 27.1059C10.7759 27.1065 9.9887 27.1082 9.20153 27.1104C8.39296 27.1125 7.58441 27.1137 6.77584 27.114C6.32202 27.1142 5.86822 27.1148 5.4144 27.1165C5.02779 27.1179 4.64118 27.1185 4.25457 27.1179C4.05748 27.1176 3.86042 27.1178 3.66334 27.119C3.44914 27.1204 3.23499 27.1198 3.02079 27.119C2.95923 27.1197 2.89766 27.1204 2.83423 27.1211C2.14155 27.1147 1.60863 26.8642 1.1114 26.3937C0.725254 25.9846 0.524428 25.4772 0.525383 24.9228C0.525248 24.8846 0.525112 24.8465 0.524973 24.8071C0.524579 24.6785 0.524551 24.5498 0.52452 24.4212C0.524315 24.3283 0.524088 24.2354 0.523842 24.1425C0.52323 23.8867 0.522941 23.6308 0.522708 23.375C0.522403 23.0993 0.52181 22.8236 0.521262 22.5478C0.520008 21.8817 0.519261 21.2155 0.518601 20.5493C0.518411 20.3611 0.518208 20.173 0.518 19.9848C0.51671 18.8165 0.515583 17.6481 0.514947 16.4798C0.514798 16.2091 0.514646 15.9384 0.514492 15.6678C0.514435 15.5669 0.514435 15.5669 0.514376 15.4639C0.51373 14.3743 0.512032 13.2847 0.509902 12.1951C0.507733 11.0765 0.506529 9.95792 0.506262 8.83932C0.506088 8.21124 0.505487 7.58317 0.503804 6.95509C0.502372 6.42014 0.50181 5.88519 0.502382 5.35024C0.502647 5.07738 0.502501 4.80454 0.501234 4.53169C0.500083 4.28161 0.500124 4.03157 0.501091 3.78149C0.501234 3.6913 0.500949 3.60111 0.500181 3.51092C0.493729 2.70444 0.658658 2.09745 1.2266 1.49725C1.56512 1.17768 2.05316 0.913091 2.52575 0.911096ZM2.33091 2.67843C2.07574 2.97734 2.0594 3.2011 2.05919 3.58562C2.0591 3.62222 2.05901 3.65883 2.05892 3.69654C2.05868 3.81953 2.05881 3.94251 2.05893 4.0655C2.05883 4.15443 2.05872 4.24337 2.05858 4.3323C2.05827 4.57696 2.05827 4.82162 2.05833 5.06628C2.05834 5.33003 2.05806 5.59379 2.05782 5.85754C2.05739 6.37438 2.05725 6.89121 2.05723 7.40804C2.0572 7.82805 2.0571 8.24806 2.05693 8.66807C2.05648 9.85835 2.05625 11.0486 2.05629 12.2389C2.05629 12.3031 2.05629 12.3673 2.05629 12.4334C2.05629 12.4977 2.0563 12.562 2.0563 12.6282C2.05632 13.6701 2.05583 14.7119 2.05511 15.7538C2.05438 16.8231 2.05402 17.8924 2.05407 18.9616C2.05408 19.5622 2.05394 20.1627 2.05339 20.7632C2.05293 21.2745 2.05282 21.7857 2.05316 22.2969C2.05333 22.5578 2.05333 22.8188 2.05289 23.0797C2.05249 23.3185 2.05256 23.5572 2.05301 23.796C2.05309 23.8825 2.05299 23.9689 2.05271 24.0553C2.05235 24.1728 2.05262 24.2902 2.05304 24.4077C2.05303 24.4729 2.05302 24.5381 2.05301 24.6054C2.07205 24.8778 2.11205 25.0811 2.29258 25.2894C2.55877 25.5166 2.75968 25.5608 3.10237 25.5611C3.15608 25.5613 3.20978 25.5614 3.26511 25.5616C3.32378 25.5615 3.38245 25.5614 3.44291 25.5613C3.50549 25.5615 3.56807 25.5616 3.63255 25.5617C3.80611 25.562 3.97967 25.562 4.15323 25.5619C4.34048 25.5619 4.52772 25.5622 4.71496 25.5625C5.08174 25.5629 5.44852 25.563 5.8153 25.563C6.11342 25.5631 6.41155 25.5632 6.70967 25.5633C7.55488 25.5638 8.40009 25.564 9.2453 25.564C9.31365 25.564 9.31365 25.564 9.38337 25.564C9.42899 25.564 9.47461 25.564 9.52161 25.564C10.2611 25.564 11.0005 25.5644 11.74 25.5652C12.4992 25.5659 13.2584 25.5663 14.0177 25.5662C14.4439 25.5662 14.8702 25.5663 15.2965 25.5669C15.6594 25.5673 16.0223 25.5675 16.3852 25.5671C16.5703 25.5669 16.7554 25.5669 16.9406 25.5674C17.1413 25.5679 17.342 25.5675 17.5428 25.5672C17.6305 25.5675 17.6305 25.5675 17.7199 25.5679C18.2321 25.5695 18.2321 25.5695 18.6678 25.3277C18.8995 25.0563 18.9393 24.8525 18.9392 24.5033C18.9393 24.4464 18.9394 24.3894 18.9395 24.3308C18.9393 24.2373 18.9393 24.2373 18.9391 24.142C18.9391 24.0756 18.9392 24.0092 18.9392 23.9408C18.9393 23.7567 18.9391 23.5725 18.9389 23.3883C18.9386 23.1897 18.9387 22.9911 18.9387 22.7924C18.9388 22.4483 18.9386 22.1042 18.9383 21.7601C18.9379 21.2626 18.9378 20.7651 18.9377 20.2676C18.9376 19.4604 18.9373 18.6532 18.9368 17.846C18.9363 17.0619 18.9359 16.2778 18.9357 15.4936C18.9357 15.4453 18.9357 15.397 18.9357 15.3472C18.9356 15.1047 18.9356 14.8623 18.9355 14.6198C18.935 12.6082 18.9341 10.5967 18.9329 8.58513C18.88 8.58506 18.827 8.58499 18.7725 8.58491C18.2709 8.58405 17.7695 8.58186 17.268 8.57838C17.0102 8.57663 16.7524 8.57535 16.4947 8.57514C16.2454 8.57492 15.9962 8.57345 15.747 8.57116C15.6524 8.5705 15.5578 8.57027 15.4632 8.57051C14.6928 8.57197 14.0445 8.48307 13.4639 7.92067C12.8596 7.29681 12.8123 6.6009 12.8144 5.78093C12.8137 5.68447 12.8129 5.58801 12.812 5.49156C12.81 5.2399 12.8095 4.98826 12.8093 4.73659C12.8088 4.4789 12.8069 4.22122 12.8051 3.96353C12.8018 3.45956 12.8001 2.9556 12.7994 2.45162C11.5061 2.44923 10.2127 2.44743 8.91936 2.44632C8.31883 2.4458 7.71831 2.44508 7.11779 2.44391C6.59438 2.44289 6.07097 2.44223 5.54756 2.442C5.27041 2.44187 4.99327 2.44156 4.71612 2.44081C4.45522 2.44012 4.19432 2.4399 3.93342 2.44006C3.83771 2.44003 3.74201 2.43983 3.6463 2.43943C3.51548 2.43892 3.38468 2.43905 3.25386 2.43933C3.19725 2.43888 3.19725 2.43888 3.1395 2.43842C2.82856 2.44021 2.57005 2.47118 2.33091 2.67843ZM14.3328 3.62721C14.3302 3.99918 14.3284 4.37114 14.3272 4.74311C14.3267 4.86958 14.326 4.99605 14.3251 5.12252C14.3238 5.30458 14.3233 5.48665 14.3228 5.66872C14.3223 5.72501 14.3217 5.7813 14.3212 5.8393C14.3178 6.35118 14.3178 6.35118 14.5596 6.78661C14.827 7.01485 15.0282 7.05839 15.3725 7.05756C15.4523 7.05755 15.4523 7.05755 15.5337 7.05754C15.6189 7.05715 15.6189 7.05715 15.7058 7.05675C15.7645 7.05667 15.8231 7.0566 15.8835 7.05653C16.0705 7.05624 16.2574 7.0556 16.4444 7.05495C16.5713 7.05469 16.6981 7.05446 16.825 7.05425C17.1358 7.05369 17.4466 7.05283 17.7573 7.05175C17.5592 6.8149 17.3538 6.58972 17.1351 6.37183C17.1053 6.34186 17.0754 6.3119 17.0446 6.28103C16.9471 6.18328 16.8494 6.08572 16.7516 5.98817C16.6834 5.91993 16.6152 5.85169 16.5471 5.78343C16.4048 5.64111 16.2625 5.49888 16.1201 5.35671C15.9371 5.17407 15.7544 4.99119 15.5718 4.80824C15.4313 4.66762 15.2908 4.52712 15.1502 4.38666C15.0827 4.31922 15.0153 4.25174 14.9479 4.18422C14.8542 4.09038 14.7603 3.99669 14.6664 3.90305C14.6383 3.87494 14.6103 3.84682 14.5815 3.81786C14.475 3.68635 14.475 3.68635 14.3328 3.62721Z" fill="white"/>
<path id="Vector_2" d="M5.9938 17.8676C6.03387 17.8674 6.07395 17.8671 6.11524 17.8668C6.24936 17.8661 6.38345 17.8664 6.51757 17.8668C6.61379 17.8665 6.71002 17.8662 6.80624 17.8657C7.06751 17.8648 7.32877 17.8649 7.59003 17.8652C7.80813 17.8653 8.02623 17.865 8.24432 17.8647C8.75883 17.864 9.27332 17.8641 9.78783 17.8647C10.3187 17.8652 10.8495 17.8645 11.3803 17.8632C11.836 17.862 12.2918 17.8617 12.7475 17.862C13.0197 17.8622 13.2919 17.862 13.5641 17.8612C13.8201 17.8604 14.076 17.8606 14.332 17.8615C14.4259 17.8617 14.5198 17.8616 14.6137 17.861C14.742 17.8603 14.8702 17.8609 14.9985 17.8618C15.0356 17.8613 15.0727 17.8609 15.1109 17.8604C15.3686 17.8641 15.5139 17.931 15.7129 18.0919C15.9202 18.3588 15.9058 18.6364 15.8662 18.9608C15.7549 19.1957 15.6381 19.3091 15.4062 19.4208C15.2684 19.4354 15.1426 19.4418 15.005 19.4407C14.9649 19.4409 14.9248 19.4412 14.8835 19.4415C14.7494 19.4422 14.6153 19.4419 14.4812 19.4415C14.385 19.4418 14.2887 19.4421 14.1925 19.4426C13.9312 19.4435 13.67 19.4434 13.4087 19.4431C13.1906 19.443 12.9725 19.4433 12.7544 19.4436C12.2399 19.4443 11.7254 19.4442 11.2109 19.4436C10.6801 19.443 10.1493 19.4438 9.61844 19.4451C9.1627 19.4463 8.70696 19.4466 8.25121 19.4463C7.97901 19.4461 7.70682 19.4463 7.43462 19.4471C7.17866 19.4479 6.92272 19.4477 6.66676 19.4468C6.57284 19.4466 6.47893 19.4467 6.38502 19.4473C6.25675 19.4479 6.12855 19.4474 6.00029 19.4465C5.96317 19.4469 5.92605 19.4474 5.88781 19.4479C5.63016 19.4442 5.48482 19.3773 5.28589 19.2164C5.07856 18.9494 5.09299 18.6719 5.13255 18.3475C5.31834 17.9552 5.57992 17.8642 5.9938 17.8676Z" fill="white"/>
<path id="Vector_3" d="M5.9938 14.8012C6.03387 14.801 6.07395 14.8007 6.11524 14.8004C6.24936 14.7997 6.38345 14.8 6.51757 14.8004C6.61379 14.8001 6.71002 14.7998 6.80624 14.7993C7.06751 14.7984 7.32877 14.7985 7.59003 14.7988C7.80813 14.7989 8.02623 14.7986 8.24432 14.7983C8.75883 14.7976 9.27332 14.7977 9.78783 14.7983C10.3187 14.7988 10.8495 14.7981 11.3803 14.7967C11.836 14.7956 12.2918 14.7953 12.7475 14.7956C13.0197 14.7958 13.2919 14.7956 13.5641 14.7947C13.8201 14.794 14.076 14.7942 14.332 14.7951C14.4259 14.7953 14.5198 14.7951 14.6137 14.7946C14.742 14.7939 14.8702 14.7945 14.9985 14.7954C15.0356 14.7949 15.0727 14.7945 15.1109 14.7939C15.3686 14.7977 15.5139 14.8645 15.7129 15.0255C15.9202 15.2924 15.9058 15.57 15.8662 15.8944C15.7549 16.1293 15.6381 16.2427 15.4062 16.3544C15.2684 16.369 15.1426 16.3754 15.005 16.3742C14.9649 16.3745 14.9248 16.3748 14.8835 16.3751C14.7494 16.3758 14.6153 16.3754 14.4812 16.3751C14.385 16.3754 14.2887 16.3757 14.1925 16.3761C13.9312 16.3771 13.67 16.377 13.4087 16.3767C13.1906 16.3766 12.9725 16.3769 12.7544 16.3772C12.2399 16.3779 11.7254 16.3778 11.2109 16.3772C10.6801 16.3766 10.1493 16.3774 9.61844 16.3787C9.1627 16.3799 8.70696 16.3802 8.25121 16.3799C7.97901 16.3797 7.70682 16.3799 7.43462 16.3807C7.17866 16.3815 6.92272 16.3813 6.66676 16.3804C6.57284 16.3802 6.47893 16.3803 6.38502 16.3809C6.25675 16.3815 6.12855 16.3809 6.00029 16.38C5.96317 16.3805 5.92605 16.381 5.88781 16.3815C5.63016 16.3778 5.48482 16.3109 5.28589 16.15C5.07856 15.883 5.09299 15.6055 5.13255 15.2811C5.31834 14.8888 5.57992 14.7978 5.9938 14.8012Z" fill="white"/>
<path id="Vector_4" d="M5.9938 11.7343C6.03387 11.7341 6.07395 11.7338 6.11524 11.7335C6.24936 11.7328 6.38345 11.7331 6.51757 11.7335C6.61379 11.7332 6.71002 11.7329 6.80624 11.7324C7.06751 11.7315 7.32877 11.7316 7.59003 11.7319C7.80813 11.732 8.02623 11.7317 8.24432 11.7314C8.75883 11.7307 9.27332 11.7308 9.78783 11.7314C10.3187 11.7319 10.8495 11.7312 11.3803 11.7299C11.836 11.7287 12.2918 11.7284 12.7475 11.7287C13.0197 11.7289 13.2919 11.7287 13.5641 11.7279C13.8201 11.7271 14.076 11.7273 14.332 11.7282C14.4259 11.7284 14.5198 11.7283 14.6137 11.7277C14.742 11.727 14.8702 11.7276 14.9985 11.7285C15.0356 11.728 15.0727 11.7276 15.1109 11.7271C15.3686 11.7308 15.5139 11.7977 15.7129 11.9586C15.9202 12.2255 15.9058 12.5031 15.8662 12.8275C15.7549 13.0624 15.6381 13.1758 15.4062 13.2875C15.2684 13.3021 15.1426 13.3085 15.005 13.3073C14.9649 13.3076 14.9248 13.3079 14.8835 13.3082C14.7494 13.3089 14.6153 13.3086 14.4812 13.3082C14.385 13.3085 14.2887 13.3088 14.1925 13.3092C13.9312 13.3102 13.67 13.3101 13.4087 13.3098C13.1906 13.3097 12.9725 13.31 12.7544 13.3103C12.2399 13.311 11.7254 13.3109 11.2109 13.3103C10.6801 13.3097 10.1493 13.3105 9.61844 13.3118C9.1627 13.313 8.70696 13.3133 8.25121 13.313C7.97901 13.3128 7.70682 13.313 7.43462 13.3138C7.17866 13.3146 6.92272 13.3144 6.66676 13.3135C6.57284 13.3133 6.47893 13.3134 6.38502 13.314C6.25675 13.3146 6.12855 13.3141 6.00029 13.3132C5.96317 13.3136 5.92605 13.3141 5.88781 13.3146C5.63016 13.3109 5.48482 13.244 5.28589 13.0831C5.07856 12.8161 5.09299 12.5386 5.13255 12.2142C5.31834 11.8219 5.57992 11.7309 5.9938 11.7343Z" fill="white"/>
<path id="Vector_5" d="M5.87737 20.9346C5.93405 20.9341 5.99072 20.9336 6.04912 20.933C6.14165 20.9334 6.14165 20.9334 6.23605 20.9337C6.3014 20.9334 6.36675 20.933 6.43408 20.9327C6.61298 20.9318 6.79187 20.9318 6.97077 20.9321C7.12027 20.9323 7.26976 20.932 7.41927 20.9316C7.77204 20.9309 8.1248 20.931 8.47757 20.9316C8.84117 20.9322 9.20474 20.9315 9.56834 20.9301C9.88084 20.929 10.1933 20.9286 10.5058 20.9289C10.6923 20.9291 10.8788 20.929 11.0653 20.9281C11.2733 20.9271 11.4813 20.9279 11.6893 20.9287C11.7817 20.928 11.7817 20.928 11.8759 20.9272C12.1982 20.9301 12.4035 20.9375 12.6461 21.1588C12.8534 21.4258 12.839 21.7034 12.7994 22.0278C12.6876 22.2638 12.5694 22.3711 12.3394 22.4878C12.2035 22.5072 12.2035 22.5072 12.0546 22.5076C11.9696 22.5083 11.9696 22.5083 11.8829 22.5091C11.8212 22.5089 11.7595 22.5087 11.6959 22.5084C11.6306 22.5088 11.5652 22.5091 11.4979 22.5095C11.319 22.5104 11.1401 22.5103 10.9612 22.51C10.8117 22.5099 10.6622 22.5102 10.5127 22.5105C10.16 22.5112 9.80719 22.5111 9.45442 22.5106C9.09082 22.51 8.72725 22.5107 8.36365 22.5121C8.05115 22.5132 7.73866 22.5135 7.42615 22.5132C7.23965 22.5131 7.05317 22.5132 6.86667 22.5141C6.65866 22.515 6.45068 22.5143 6.24267 22.5134C6.15029 22.5141 6.15029 22.5141 6.05605 22.5149C5.73377 22.5121 5.52851 22.5047 5.28589 22.2833C5.07856 22.0164 5.09299 21.7388 5.13255 21.4144C5.28995 21.0821 5.51155 20.9355 5.87737 20.9346Z" fill="white"/>
</g>
</svg>
