<svg width="40" height="41" viewBox="0 0 40 41" fill="none" xmlns="http://www.w3.org/2000/svg">
<path d="M19.9302 5.7266C20.3662 5.7266 20.7197 5.3731 20.7197 4.93705V1.41553C20.7197 0.979477 20.3662 0.625977 19.9302 0.625977C19.4941 0.625977 19.1406 0.979477 19.1406 1.41553V4.93705C19.1407 5.3731 19.4942 5.7266 19.9302 5.7266Z" fill="#0DA574"/>
<path d="M39.2297 27.7507L37.8349 26.3599C37.3387 25.8643 36.6774 25.5913 35.9727 25.5913C35.5222 25.5913 35.0896 25.7034 34.7064 25.9135L32.078 23.2882L32.206 23.1603C33.2723 22.0919 33.2719 20.3558 32.2059 19.291C31.825 18.9093 31.3496 18.6548 30.8315 18.5477C30.9028 18.3015 30.9404 18.0435 30.9404 17.7796C30.9404 17.0462 30.6555 16.3584 30.1398 15.8449C29.7588 15.4632 29.2835 15.2087 28.7654 15.1016C28.8367 14.8554 28.8743 14.5975 28.8743 14.3335C28.8743 13.6 28.5894 12.9123 28.0728 12.398C27.6827 12.0083 27.2031 11.7617 26.6996 11.6567C26.9689 10.7279 26.7388 9.68295 26.0081 8.95101C25.3999 8.34538 24.5746 8.0851 23.7792 8.16946L18.5708 7.18359C17.7765 7.03291 16.7845 6.93326 16.1583 7.5044C16.1188 7.54046 16.0785 7.58194 16.0388 7.62811C15.0679 7.27422 13.9355 7.48496 13.1581 8.26157C12.6423 8.77673 12.3582 9.46413 12.3582 10.1972C12.3582 10.4612 12.3956 10.7191 12.4668 10.9654C11.9492 11.0724 11.4745 11.3266 11.0948 11.707C10.578 12.2217 10.2931 12.9083 10.2925 13.6404C10.2923 13.9051 10.3298 14.1638 10.4015 14.4108C9.88366 14.5176 9.40864 14.7713 9.02778 15.1517C8.51097 15.6679 8.22639 16.3557 8.22639 17.0883C8.22639 17.6495 8.39392 18.1841 8.70438 18.6357C8.31239 18.7686 7.95332 18.9897 7.65266 19.2901C6.58565 20.3558 6.58526 22.092 7.65337 23.162L7.78092 23.289L5.15221 25.9129C4.17528 25.4529 2.97163 25.6253 2.16545 26.4304L0.769798 27.8221C0.273377 28.3179 7.83988e-05 28.9793 0 29.6844C0 30.3895 0.273377 31.0509 0.769798 31.5468L2.51158 33.2865C2.82008 33.5947 3.32003 33.5943 3.62814 33.2858C3.93632 32.9773 3.93601 32.4774 3.62751 32.1693L1.88573 30.4296C1.688 30.2321 1.57911 29.9675 1.57911 29.6844C1.57911 29.4015 1.688 29.1369 1.88526 28.9399L3.28099 27.5481C3.62971 27.1997 4.16345 27.1478 4.56877 27.3902C4.5973 27.4331 4.63031 27.4738 4.6681 27.5117C4.73576 27.5795 4.81298 27.6315 4.89499 27.6695L12.899 35.6617C12.937 35.7446 12.9892 35.8226 13.0573 35.8908C13.1236 35.9572 13.1993 36.0086 13.2796 36.0463C13.4488 36.2377 13.5424 36.4822 13.5424 36.7429C13.5424 37.0259 13.4335 37.2905 13.2358 37.488L11.8414 38.8807C11.4294 39.2909 10.7593 39.2908 10.3486 38.8819L8.60678 37.14C8.29843 36.8317 7.79856 36.8317 7.49022 37.14C7.18188 37.4483 7.18188 37.9482 7.49022 38.2566L9.23326 39.9998C9.7463 40.5107 10.4201 40.766 11.0941 40.766C11.7684 40.766 12.4429 40.5103 12.9566 39.9989L14.3518 38.6054C14.8482 38.1095 15.1216 37.4481 15.1216 36.7429C15.1216 36.2397 14.9816 35.7591 14.7214 35.3447L17.6799 32.3898C17.683 32.3866 17.6861 32.3834 17.6894 32.3802C18.0281 32.03 18.9715 32.0955 19.8838 32.1589C20.532 32.2039 21.2547 32.254 21.9608 32.1727L25.2005 35.4086C24.9906 35.7912 24.8786 36.2232 24.8786 36.6731C24.8786 37.3775 25.152 38.0385 25.6484 38.5343L27.0437 39.9279C27.5398 40.4234 28.2011 40.6964 28.9057 40.6964C29.6103 40.6964 30.2716 40.4235 30.7678 39.9279L39.2302 31.4757C39.7266 30.9799 40 30.3185 40 29.6134C39.9999 28.9084 39.7265 28.247 39.2297 27.7507ZM18.2768 8.7351L21.7018 9.38338L19.6518 11.4326C19.3346 11.2802 18.9 10.996 18.4232 10.5398C17.7705 9.91548 17.3036 9.1946 17.2611 8.74498C17.2611 8.74475 17.2611 8.74451 17.2611 8.74428C17.2611 8.7442 17.261 8.74412 17.261 8.74404C17.2579 8.71174 17.2571 8.68595 17.2575 8.66627C17.3608 8.64118 17.635 8.61335 18.2768 8.7351ZM14.2739 9.37884C14.6739 8.97924 15.2953 8.93314 15.7473 9.23921C16.0034 10.3131 16.9195 11.2864 17.3316 11.6808C17.6371 11.9731 18.6171 12.8493 19.6064 13.0902C19.7402 13.282 19.813 13.5107 19.813 13.752C19.813 14.0628 19.6935 14.3535 19.4756 14.5711C19.2583 14.7887 18.9673 14.9085 18.6559 14.9085C18.3444 14.9085 18.0533 14.7887 17.835 14.5701L17.8349 14.57L17.8345 14.5696L14.2738 11.0153C14.0567 10.7986 13.9372 10.5079 13.9372 10.1972C13.9373 9.88631 14.0568 9.59569 14.2739 9.37884ZM12.2108 12.8242C12.428 12.6067 12.7188 12.4868 13.0297 12.4868C13.341 12.4868 13.6328 12.6069 13.8514 12.8253L16.7186 15.6868C17.1701 16.139 17.1701 16.8749 16.7202 17.3255C16.5018 17.543 16.2097 17.6628 15.8977 17.6628C15.5858 17.6628 15.2936 17.5431 15.0762 17.3264L15.0761 17.3264L12.9009 15.1517C12.8975 15.1483 12.8939 15.1451 12.8904 15.1417L12.2099 14.4615C11.9916 14.2434 11.8714 13.9522 11.8716 13.6416C11.8719 13.332 11.9917 13.0423 12.2108 12.8242ZM10.1437 16.2689C10.3611 16.0518 10.6525 15.9323 10.9644 15.9323C11.2737 15.9323 11.5626 16.0501 11.779 16.2634L13.9609 18.4442C14.1784 18.6609 14.2983 18.9512 14.2983 19.2617C14.2983 19.5721 14.1784 19.8624 13.96 20.08C13.7427 20.297 13.4516 20.4165 13.1403 20.4165C12.8285 20.4165 12.5364 20.2967 12.3188 20.08L11.5278 19.2899C11.5277 19.2897 11.5274 19.2895 11.5273 19.2894L10.1438 17.9075C9.92568 17.6897 9.80557 17.3986 9.80557 17.0882C9.80557 16.7778 9.92568 16.4867 10.1437 16.2689ZM8.76859 20.4073C8.98693 20.1892 9.27873 20.0691 9.59021 20.0691C9.90161 20.0691 10.1933 20.1891 10.4116 20.407L11.2037 21.1982C11.4213 21.4149 11.5411 21.7052 11.5411 22.0156C11.5411 22.3261 11.4212 22.6163 11.202 22.8347C10.9848 23.0523 10.6937 23.1722 10.3823 23.1722C10.0708 23.1722 9.7797 23.0524 9.56089 22.8332L9.46171 22.7344C9.46038 22.7331 9.45936 22.7316 9.45811 22.7304C9.45662 22.729 9.45505 22.7277 9.45356 22.7263L8.76937 22.0448C8.31788 21.5923 8.31748 20.8578 8.76859 20.4073ZM24.8587 29.3806C24.5505 29.0721 24.0506 29.0718 23.7421 29.3799L23.0397 30.0815C22.3722 30.749 21.1627 30.665 19.9931 30.5838C18.723 30.4956 17.4095 30.4044 16.5596 31.277L13.6514 34.1817L6.37892 26.9199L8.95259 24.3508C9.37798 24.6116 9.86884 24.7513 10.3824 24.7513C11.1162 24.7513 11.8042 24.4669 12.3181 23.9521C12.8354 23.4368 13.1204 22.7492 13.1204 22.0157C13.1204 22.0089 13.12 22.0021 13.12 21.9953C13.1268 21.9954 13.1336 21.9958 13.1404 21.9958C13.8731 21.9958 14.5606 21.7122 15.0752 21.1982C15.5926 20.683 15.8776 19.9953 15.8776 19.2619C15.8776 19.255 15.8771 19.2483 15.8771 19.2415C15.884 19.2415 15.8909 19.242 15.8979 19.242C16.6303 19.242 17.3182 18.9587 17.8363 18.4428C18.3741 17.9041 18.6401 17.1949 18.635 16.4872C18.6421 16.4873 18.6491 16.4876 18.6562 16.4876C19.3899 16.4876 20.0779 16.2032 20.5925 15.6876C21.1083 15.1724 21.3924 14.485 21.3924 13.752C21.3924 13.2393 21.253 12.7493 20.9932 12.3247L23.2489 10.0699C23.417 9.90254 23.6243 9.79749 23.8415 9.75413C23.8651 9.75162 23.8883 9.74786 23.9112 9.74331C24.2598 9.69525 24.6258 9.80282 24.8924 10.0683C25.3439 10.5206 25.3439 11.2564 24.894 11.707L24.207 12.3912C24.2048 12.3935 24.2023 12.3955 24.2001 12.3978L23.4088 13.1878C23.1002 13.4959 23.0999 13.9958 23.4081 14.3043C23.7163 14.6129 24.2162 14.6131 24.5246 14.305L25.2144 13.6162C25.2145 13.6161 25.2147 13.6159 25.2149 13.6157L25.3191 13.5119C25.7719 13.0633 26.5054 13.0642 26.9577 13.5159C27.1753 13.7326 27.2952 14.0229 27.2952 14.3333C27.2952 14.6437 27.1753 14.934 26.9559 15.1524L26.265 15.8448C26.2649 15.8449 26.2648 15.8449 26.2648 15.8451L25.4736 16.6331C25.1646 16.9408 25.1636 17.4407 25.4713 17.7496C25.779 18.0586 26.2789 18.0595 26.5879 17.7519L27.3827 16.9603C27.5999 16.7427 27.891 16.6229 28.2024 16.6229C28.5139 16.6229 28.805 16.7427 29.0239 16.9619C29.2415 17.1787 29.3613 17.469 29.3613 17.7794C29.3613 18.0898 29.2415 18.3801 29.0226 18.5981L27.6451 19.9761C27.3369 20.2845 27.337 20.7844 27.6453 21.0926C27.7995 21.2468 28.0015 21.3238 28.2035 21.3238C28.4056 21.3238 28.6077 21.2466 28.7618 21.0924L29.4369 20.4171C29.4408 20.4134 29.4449 20.4102 29.4488 20.4063C29.666 20.1887 29.9571 20.0689 30.2685 20.0689C30.58 20.0689 30.8711 20.1887 31.0891 20.4071C31.5401 20.8577 31.5398 21.5923 31.0891 22.0437L30.4027 22.7293C30.4025 22.7295 30.4022 22.7298 30.402 22.73C30.4017 22.7302 30.4015 22.7305 30.4012 22.7308L29.3118 23.8189C29.0033 24.1271 29.003 24.627 29.3111 24.9355C29.4653 25.0899 29.6676 25.1671 29.8698 25.1671C30.0717 25.1671 30.2736 25.0901 30.4277 24.9362L30.9606 24.404L33.5146 26.955L26.2427 34.218L23.6372 31.6156C23.8189 31.4988 23.9927 31.3615 24.1558 31.1983L24.8579 30.4971C25.1666 30.1891 25.1669 29.6891 24.8587 29.3806ZM38.1142 30.3584L29.6518 38.8106C29.4538 39.0083 29.1888 39.1172 28.9056 39.1172C28.6225 39.1172 28.3575 39.0083 28.1594 38.8105L26.7642 37.417C26.5664 37.2196 26.4576 36.9554 26.4576 36.6731C26.4576 36.3908 26.5664 36.1266 26.7642 35.9291L35.2266 27.477C35.4246 27.2792 35.6896 27.1703 35.9728 27.1703C36.256 27.1703 36.521 27.2792 36.7195 27.4774L38.1143 28.8683C38.312 29.0658 38.4209 29.3303 38.4209 29.6133C38.4208 29.8964 38.3119 30.161 38.1142 30.3584Z" fill="#0DA574"/>
<path d="M9.4458 5.06089C9.59993 5.21471 9.80173 5.29154 10.0035 5.29154C10.2058 5.29154 10.4081 5.21424 10.5624 5.05971C10.8704 4.75106 10.8699 4.25119 10.5613 3.94316L7.68418 1.0718C7.3756 0.763773 6.87565 0.764165 6.56762 1.0729C6.25959 1.38156 6.26006 1.88143 6.56872 2.18946L9.4458 5.06089Z" fill="#0DA574"/>
<path d="M29.8564 5.29175C30.0583 5.29175 30.2603 5.21477 30.4144 5.06087L33.2893 2.18943C33.5978 1.88133 33.5981 1.38138 33.2899 1.07288C32.9818 0.76438 32.4819 0.764066 32.1733 1.07225L29.2985 3.94369C28.99 4.25179 28.9897 4.75174 29.2978 5.06024C29.452 5.21461 29.6542 5.29175 29.8564 5.29175Z" fill="#0DA574"/>
</svg>
