<svg width="40" height="51" viewBox="0 0 40 51" fill="none" xmlns="http://www.w3.org/2000/svg">
<path d="M29.6357 18.2847H27.4176C27.2822 17.8549 27.1099 17.4387 26.902 17.0394L28.4703 15.471C28.6663 15.275 28.7742 15.0143 28.7742 14.7371C28.7742 14.4598 28.6663 14.1991 28.4703 14.0032L26.6246 12.1573C26.2199 11.753 25.5616 11.7528 25.1568 12.1574L23.5884 13.7258C23.1891 13.5179 22.7728 13.3456 22.343 13.2102V10.992C22.3429 10.4198 21.8773 9.9541 21.305 9.9541H18.6946C18.1224 9.9541 17.6568 10.4197 17.6568 10.992V13.2102C17.2269 13.3457 16.8107 13.5179 16.4113 13.7258L14.8428 12.1573C14.4382 11.7529 13.7798 11.753 13.3751 12.1574L11.5295 14.0031C11.3334 14.199 11.2254 14.4597 11.2254 14.737C11.2254 15.0143 11.3334 15.2749 11.5294 15.4709L13.0978 17.0393C12.8899 17.4386 12.7175 17.8549 12.5822 18.2846H10.364C9.79178 18.2846 9.32617 18.7502 9.32617 19.3226V21.9329C9.32617 22.5052 9.79178 22.9708 10.364 22.9708H12.5822C12.7176 23.4005 12.8899 23.8169 13.0978 24.2161L11.5294 25.7845C11.1247 26.1892 11.1247 26.8477 11.5294 27.2523L13.3751 29.0981C13.7798 29.5028 14.4384 29.5027 14.8429 29.0981L16.4113 27.5297C16.8106 27.7376 17.227 27.9099 17.6568 28.0453V30.2634C17.6568 30.8357 18.1224 31.3013 18.6946 31.3013H21.305C21.8772 31.3013 22.3429 30.8357 22.3429 30.2634V28.0453C22.7726 27.9099 23.189 27.7376 23.5883 27.5297L25.1567 29.0981C25.5615 29.5028 26.2199 29.5027 26.6246 29.0981L28.4702 27.2523C28.6662 27.0563 28.7741 26.7957 28.7741 26.5185C28.7741 26.2412 28.6662 25.9806 28.4702 25.7845L26.9018 24.2161C27.1097 23.8168 27.2821 23.4005 27.4174 22.9708H29.6356C30.2079 22.9708 30.6736 22.5052 30.6736 21.9329V19.3226C30.6737 18.7503 30.208 18.2847 29.6357 18.2847ZM29.209 21.506H26.8596C26.5193 21.506 26.2239 21.7403 26.1464 22.0716C25.9902 22.739 25.7282 23.3721 25.3673 23.9531C25.1877 24.2421 25.231 24.6167 25.4715 24.8574L27.1327 26.5186L25.8907 27.7605L24.2296 26.0994C23.989 25.8587 23.6144 25.8154 23.3251 25.9951C22.7441 26.3559 22.111 26.618 21.4438 26.7742C21.1124 26.8517 20.8781 27.1471 20.8781 27.4874V29.8369H19.1219V27.4874C19.1219 27.1472 18.8876 26.8518 18.5563 26.7742C17.889 26.6182 17.2559 26.3561 16.6748 25.9951C16.3858 25.8158 16.0112 25.8587 15.7704 26.0994L14.1093 27.7605L12.8673 26.5186L14.5285 24.8574C14.7691 24.6168 14.8123 24.2422 14.6328 23.9531C14.272 23.372 14.0099 22.7389 13.8537 22.0716C13.7763 21.7403 13.4808 21.506 13.1406 21.506H10.7912V19.7497H13.1406C13.4808 19.7497 13.7762 19.5154 13.8537 19.1841C14.0099 18.5167 14.272 17.8837 14.6328 17.3026C14.8123 17.0136 14.7691 16.639 14.5285 16.3983L12.8673 14.7371L14.1093 13.4952L15.7704 15.1563C16.0109 15.397 16.3857 15.4402 16.6748 15.2606C17.2557 14.8998 17.8888 14.6377 18.5563 14.4816C18.8876 14.4041 19.1219 14.1087 19.1219 13.7684V11.4189H20.8781V13.7684C20.8781 14.1086 21.1124 14.404 21.4438 14.4816C22.1111 14.6377 22.7441 14.8998 23.3252 15.2606C23.6141 15.44 23.9889 15.3968 24.2296 15.1563L25.8907 13.4952L27.1327 14.7371L25.4715 16.3983C25.2309 16.6389 25.1877 17.0135 25.3673 17.3026C25.7281 17.8835 25.9902 18.5166 26.1464 19.1841C26.2239 19.5154 26.5192 19.7497 26.8596 19.7497H29.209V21.506Z" fill="#0DA574"/>
<path d="M19.9998 16.7043C17.8363 16.7043 16.0762 18.4645 16.0762 20.628C16.0762 22.7915 17.8364 24.5517 19.9998 24.5517C22.1633 24.5517 23.9235 22.7915 23.9235 20.628C23.9235 18.4645 22.1634 16.7043 19.9998 16.7043ZM19.9998 23.0869C18.644 23.0869 17.541 21.9838 17.541 20.628C17.541 19.2722 18.644 18.1691 19.9998 18.1691C21.3556 18.1691 22.4587 19.2722 22.4587 20.628C22.4587 21.9838 21.3556 23.0869 19.9998 23.0869Z" fill="#0DA574"/>
<path d="M3.16218 19.8955H0.732393C0.327917 19.8955 0 20.2234 0 20.6279C0 21.0324 0.327917 21.3603 0.732393 21.3603H3.16218C3.56665 21.3603 3.89457 21.0324 3.89457 20.6279C3.89457 20.2234 3.56665 19.8955 3.16218 19.8955Z" fill="#0DA574"/>
<path d="M39.2676 19.8955H36.8379C36.4333 19.8955 36.1055 20.2234 36.1055 20.6279C36.1055 21.0324 36.4333 21.3603 36.8379 21.3603H39.2676C39.6722 21.3603 40 21.0324 40 20.6279C40 20.2234 39.6721 19.8955 39.2676 19.8955Z" fill="#0DA574"/>
<path d="M8.61099 32.0163C8.32506 31.7303 7.86131 31.7303 7.57519 32.0163L5.8571 33.7344C5.57107 34.0204 5.57107 34.4841 5.8571 34.7702C6.14312 35.0562 6.60687 35.0562 6.89289 34.7702L8.61099 33.0521C8.89701 32.7661 8.89701 32.3023 8.61099 32.0163Z" fill="#0DA574"/>
<path d="M34.1423 6.48576C33.8562 6.19973 33.3926 6.19973 33.1064 6.48576L31.3883 8.20385C31.1023 8.48988 31.1023 8.95363 31.3883 9.23965C31.6745 9.52568 32.1381 9.52558 32.4242 9.23965L34.1423 7.52156C34.4284 7.23544 34.4284 6.77168 34.1423 6.48576Z" fill="#0DA574"/>
<path d="M20 0.62793C19.5954 0.62793 19.2676 0.955846 19.2676 1.36032V3.79011C19.2676 4.19458 19.5954 4.5225 20 4.5225C20.4045 4.5225 20.7324 4.19458 20.7324 3.79011V1.36032C20.7324 0.955846 20.4045 0.62793 20 0.62793Z" fill="#0DA574"/>
<path d="M34.1423 33.7344L32.4242 32.0163C32.1381 31.7303 31.6745 31.7303 31.3883 32.0163C31.1023 32.3023 31.1023 32.7662 31.3883 33.0521L33.1064 34.7702C33.3926 35.0562 33.8562 35.0562 34.1423 34.7702C34.4284 34.4841 34.4284 34.0204 34.1423 33.7344Z" fill="#0DA574"/>
<path d="M8.61099 8.2041L6.89289 6.486C6.60687 6.19998 6.14312 6.19998 5.8571 6.486C5.57107 6.77203 5.57107 7.23578 5.8571 7.5218L7.57519 9.2399C7.86122 9.52592 8.32497 9.52592 8.61099 9.2399C8.89701 8.95378 8.89701 8.49002 8.61099 8.2041Z" fill="#0DA574"/>
<path d="M34.6117 18.8337C33.8236 12.1079 28.4921 6.77586 21.7978 5.95987C21.3969 5.91056 21.031 6.19678 20.982 6.59823C20.9331 6.99977 21.2189 7.36499 21.6205 7.41401C27.7 8.155 32.444 12.9211 33.1567 19.0042C33.2004 19.3769 33.5169 19.6513 33.8832 19.6513C33.9117 19.6513 33.9404 19.6497 33.9694 19.6463C34.3713 19.5994 34.6588 19.2355 34.6117 18.8337Z" fill="#0DA574"/>
<path d="M33.9613 21.6102C33.5593 21.559 33.1934 21.8435 33.1426 22.2448C32.6433 26.1888 30.4173 29.6688 27.0352 31.7923C25.5771 32.7078 24.7067 34.2745 24.7067 35.9832V38.9975H15.2947V35.9165C15.2947 34.2619 14.43 32.6987 13.0382 31.8371C9.10219 29.4007 6.75229 25.1863 6.75219 20.5635C6.75219 13.8888 11.7518 8.23609 18.3817 7.41483C18.7832 7.36513 19.0682 6.99932 19.0185 6.59787C18.9688 6.19652 18.6032 5.91069 18.2015 5.96108C10.8761 6.86857 5.28701 13.1681 5.28711 20.5635C5.28711 23.1155 5.95085 25.6298 7.20676 27.8348C8.42419 29.9724 10.174 31.787 12.2669 33.0826C13.2308 33.6792 13.8295 34.7651 13.8295 35.9164V39.1041C13.0848 39.3629 12.5479 40.0701 12.5479 40.9018V41.9459C12.5479 42.388 12.7006 42.7943 12.9542 43.1178C12.7005 43.4413 12.5479 43.8476 12.5479 44.2897V45.3337C12.5479 46.3838 13.4022 47.2381 14.4522 47.2381H16.7548V48.8937C16.7548 49.8489 17.5318 50.6259 18.4869 50.6259H21.5138C22.4689 50.6259 23.2459 49.8489 23.2459 48.8937V47.2381H25.5485C26.5986 47.2381 27.4528 46.3837 27.4528 45.3337V44.2897C27.4528 43.8477 27.3001 43.4413 27.0464 43.1178C27.3001 42.7943 27.4528 42.3881 27.4528 41.9459V40.9018C27.4528 40.07 26.9159 39.3629 26.1711 39.1041V35.9831C26.1711 34.7815 26.7851 33.6786 27.8137 33.0329C31.5688 30.6751 34.0407 26.8101 34.5953 22.4288C34.6466 22.0274 34.3625 21.6609 33.9613 21.6102ZM21.7813 48.8936C21.7813 49.0385 21.6589 49.1609 21.5141 49.1609H18.4872C18.3423 49.1609 18.22 49.0386 18.22 48.8936V47.238H21.7813V48.8936ZM25.9883 45.3336C25.9883 45.5718 25.7871 45.7731 25.5489 45.7731C24.256 45.7731 15.6725 45.7731 14.4525 45.7731C14.2143 45.7731 14.013 45.5718 14.013 45.3336V44.2896C14.013 44.0515 14.2143 43.8502 14.4525 43.8502H25.5489C25.7871 43.8502 25.9883 44.0515 25.9883 44.2896V45.3336ZM25.9883 41.9458C25.9883 42.184 25.7871 42.3852 25.5489 42.3852H14.4525C14.2143 42.3852 14.013 42.184 14.013 41.9458V40.9017C14.013 40.6635 14.2143 40.4622 14.4525 40.4622H25.5489C25.7871 40.4622 25.9883 40.6635 25.9883 40.9017V41.9458Z" fill="#0DA574"/>
</svg>
