<svg width="40" height="40" viewBox="0 0 40 40" fill="none" xmlns="http://www.w3.org/2000/svg">
<path d="M10 15.0666C9.632 15.0666 9.33333 14.7679 9.33333 14.3999V11.9853C9.33333 11.7759 9.43067 11.5799 9.59733 11.4546C10.2773 10.9399 10.6667 10.1666 10.6667 9.33325V7.33325C10.6667 5.86259 9.47067 4.66658 8 4.66658C6.52933 4.66658 5.33333 5.86259 5.33333 7.33325V9.33325C5.33333 10.1666 5.72267 10.9399 6.40267 11.4546C6.56933 11.5799 6.66667 11.7773 6.66667 11.9866V14.4013C6.66667 14.7693 6.368 15.0679 6 15.0679C5.632 15.0679 5.33333 14.7679 5.33333 14.3999V12.2999C4.48133 11.5386 4 10.4746 4 9.33325V7.33325C4 5.12792 5.79467 3.33325 8 3.33325C10.2053 3.33325 12 5.12792 12 7.33325V9.33325C12 10.4746 11.5187 11.5373 10.6667 12.2999V14.3999C10.6667 14.7679 10.368 15.0666 10 15.0666Z" fill="#0DA574"/>
<path d="M8.67139 13.2665C8.36206 13.2665 8.08472 13.0492 8.01939 12.7345C7.94606 12.3732 8.17806 12.0212 8.53939 11.9478C9.77139 11.6932 10.6674 10.5945 10.6674 9.33317C10.6674 8.96517 10.9661 8.6665 11.3341 8.6665C11.7021 8.6665 12.0007 8.96517 12.0007 9.33317C12.0007 11.2238 10.6567 12.8718 8.80606 13.2518C8.76072 13.2612 8.71672 13.2665 8.67139 13.2665Z" fill="#0DA574"/>
<path d="M12.498 16.1122C12.41 16.1122 12.3207 16.0948 12.2354 16.0575L9.73671 14.9842C9.39804 14.8388 9.24204 14.4468 9.38737 14.1082C9.53137 13.7682 9.92337 13.6148 10.262 13.7588L12.7607 14.8322C13.0994 14.9775 13.2554 15.3695 13.11 15.7082C13.002 15.9615 12.7554 16.1122 12.498 16.1122Z" fill="#0DA574"/>
<path d="M4 24.1827C3.908 24.1827 3.81333 24.164 3.724 24.1227L1.172 22.9627C0.46 22.6373 0 21.9227 0 21.1413V19.2933C0 17.424 1.10667 15.744 2.81867 15.0133L5.73467 13.748C6.076 13.6013 6.46533 13.756 6.612 14.0933C6.75733 14.4307 6.60267 14.824 6.26533 14.9707L3.34667 16.2373C2.12267 16.7613 1.33333 17.96 1.33333 19.2933V21.1413C1.33333 21.4013 1.48667 21.6413 1.724 21.7493L4.276 22.9093C4.61067 23.0613 4.75867 23.4573 4.60667 23.792C4.49467 24.0373 4.252 24.1827 4 24.1827Z" fill="#0DA574"/>
<path d="M10.5853 8.54659C9.25733 8.54659 7.988 8.08925 6.91467 7.22392C6.62933 6.99325 6.584 6.57459 6.81333 6.28792C7.04667 6.00125 7.46667 5.95725 7.75067 6.18792C8.60667 6.87725 9.62267 7.24925 10.664 7.21325C10.6 5.79725 9.42933 4.66658 8 4.66658C6.52933 4.66658 5.33333 5.86259 5.33333 7.33325V7.82659C5.33333 8.19459 5.03467 8.49325 4.66667 8.49325C4.29867 8.49325 4 8.19592 4 7.82659V7.33325C4 5.12792 5.79467 3.33325 8 3.33325C10.2053 3.33325 12 5.12792 12 7.33325V7.79992C12 8.12792 11.7613 8.40659 11.4387 8.45859C11.1307 8.50792 10.864 8.54659 10.5853 8.54659Z" fill="#0DA574"/>
<path d="M34 15.0667C33.632 15.0667 33.3333 14.7681 33.3333 14.4001V11.9854C33.3333 11.7761 33.4307 11.5801 33.5973 11.4547C34.2773 10.9401 34.6667 10.1667 34.6667 9.33338V7.33338C34.6667 5.86272 33.4707 4.66672 32 4.66672C30.5293 4.66672 29.3333 5.86272 29.3333 7.33338V9.33338C29.3333 10.1667 29.7227 10.9401 30.4027 11.4547C30.5693 11.5801 30.6667 11.7774 30.6667 11.9867V14.4014C30.6667 14.7694 30.368 15.0681 30 15.0681C29.632 15.0681 29.3333 14.7694 29.3333 14.4014V12.3014C28.4813 11.5401 28 10.4761 28 9.33472V7.33472C28 5.12938 29.7947 3.33472 32 3.33472C34.2053 3.33472 36 5.12938 36 7.33472V9.33472C36 10.4761 35.5187 11.5387 34.6667 12.3014V14.4014C34.6667 14.7681 34.368 15.0667 34 15.0667Z" fill="#0DA574"/>
<path d="M32.6714 13.2665C32.3621 13.2665 32.0847 13.0492 32.0194 12.7345C31.9461 12.3732 32.1781 12.0212 32.5394 11.9478C33.7714 11.6932 34.6674 10.5945 34.6674 9.33317C34.6674 8.96517 34.9661 8.6665 35.3341 8.6665C35.7021 8.6665 36.0007 8.96517 36.0007 9.33317C36.0007 11.2238 34.6567 12.8718 32.8061 13.2518C32.7607 13.2612 32.7167 13.2665 32.6714 13.2665Z" fill="#0DA574"/>
<path d="M27.6966 16.0278C27.4393 16.0278 27.1926 15.8772 27.0846 15.6238C26.9393 15.2865 27.0953 14.8932 27.434 14.7478L29.7366 13.7585C30.0726 13.6158 30.466 13.7678 30.6113 14.1078C30.7566 14.4452 30.6006 14.8385 30.262 14.9838L27.9593 15.9732C27.874 16.0105 27.786 16.0278 27.6966 16.0278Z" fill="#0DA574"/>
<path d="M36.0006 24.1827C35.7486 24.1827 35.5059 24.0374 35.3939 23.792C35.2419 23.4574 35.3899 23.0614 35.7246 22.9094L38.2766 21.7494C38.5139 21.6414 38.6673 21.4027 38.6673 21.1414V19.2934C38.6673 17.96 37.8779 16.7614 36.6579 16.24L33.7353 14.9707C33.3979 14.824 33.2433 14.432 33.3886 14.0934C33.5353 13.7547 33.9219 13.6 34.2659 13.748L37.1846 15.0147C38.8939 15.744 40.0006 17.424 40.0006 19.2934V21.1414C40.0006 21.9227 39.5406 22.6374 38.8286 22.9627L36.2766 24.1227C36.1873 24.1627 36.0926 24.1827 36.0006 24.1827Z" fill="#0DA574"/>
<path d="M21.7465 6.55469C19.8505 6.55469 17.8772 5.88669 16.7892 4.90803C16.5145 4.66136 16.4918 4.24003 16.7385 3.96669C16.9852 3.69336 17.4105 3.67069 17.6798 3.91736C18.9945 5.09869 22.1438 5.71603 23.9479 4.74803C24.2719 4.57336 24.6772 4.69469 24.8505 5.02003C25.0252 5.34536 24.9025 5.74803 24.5785 5.92269C23.7558 6.36136 22.7625 6.55469 21.7465 6.55469Z" fill="#0DA574"/>
<path d="M19.9907 18.6667C17.7787 18.6667 16.6254 16.9413 16.324 16.028C16.208 15.6773 16.3987 15.3013 16.748 15.1853C17.0974 15.0707 17.472 15.26 17.588 15.6067C17.616 15.6867 18.2067 17.332 19.9907 17.332C21.7894 17.332 22.4227 15.636 22.4507 15.564C22.5747 15.2187 22.9614 15.0387 23.3014 15.1613C23.6467 15.284 23.8294 15.6613 23.708 16.008C23.6694 16.1173 22.748 18.6667 19.9907 18.6667Z" fill="#0DA574"/>
<path d="M32.6667 24C32.2987 24 32 23.7014 32 23.3334V22.9614C32 20.984 30.7533 19.216 28.8987 18.564L23.3373 16.5907C22.5373 16.312 22 15.5547 22 14.708V13.068C22 12.7 22.2987 12.4014 22.6667 12.4014C23.0347 12.4014 23.3333 12.7 23.3333 13.068V14.708C23.3333 14.988 23.5133 15.2387 23.78 15.332L29.3427 17.3067C31.7293 18.1454 33.3333 20.4187 33.3333 22.9614V23.3347C33.3333 23.7027 33.0347 24 32.6667 24Z" fill="#0DA574"/>
<path d="M7.33268 24.0001C6.96468 24.0001 6.66602 23.7015 6.66602 23.3335V22.9735C6.66602 22.5575 6.71002 22.1401 6.79668 21.7281C7.22602 19.6975 8.71135 18.0041 10.6687 17.3055L16.218 15.3588C16.486 15.2655 16.666 15.0135 16.666 14.7335V13.0668C16.666 12.6988 16.9647 12.4001 17.3327 12.4001C17.7007 12.4001 17.9993 12.6988 17.9993 13.0668V14.7335C17.9993 15.5788 17.462 16.3361 16.6593 16.6175L11.114 18.5628C9.59002 19.1055 8.43535 20.4241 8.10068 22.0041C8.03268 22.3241 7.99935 22.6508 7.99935 22.9735V23.3335C7.99935 23.7028 7.70068 24.0001 7.33268 24.0001Z" fill="#0DA574"/>
<path d="M19.9993 14.6667C19.6313 14.6667 19.3327 14.368 19.3327 14C19.3327 13.632 19.6313 13.3333 19.9993 13.3333C21.3833 13.3333 23.9993 12.08 23.9993 7.33333V5.33333C23.9993 3.128 22.2047 1.33333 19.9993 1.33333C17.794 1.33333 15.9993 3.128 15.9993 5.33333V7.33333C15.9993 9.632 16.614 11.3907 17.7753 12.4187C18.0513 12.6627 18.078 13.084 17.8327 13.36C17.586 13.6373 17.166 13.66 16.8927 13.4173C15.8767 12.5187 14.666 10.7347 14.666 7.33333V5.33333C14.666 2.392 17.058 0 19.9993 0C22.9407 0 25.3327 2.392 25.3327 5.33333V7.33333C25.3327 13.1347 21.8447 14.6667 19.9993 14.6667Z" fill="#0DA574"/>
<path d="M30.158 36C29.9126 36 29.678 35.864 29.5606 35.6294C29.398 35.2987 29.5326 34.9 29.8633 34.736L33.1606 33.1027C33.346 33.0107 33.5673 33.0107 33.7513 33.1027L35.906 34.1707L35.5553 31.792C35.526 31.5867 35.5926 31.3774 35.7393 31.2294L37.4233 29.508L35.05 29.104C34.846 29.0694 34.6686 28.94 34.5713 28.756L33.4566 26.6254L32.3406 28.756C32.2433 28.94 32.066 29.0694 31.862 29.104L29.49 29.508L31.1726 31.2294C31.43 31.4934 31.4246 31.9147 31.162 32.172C30.898 32.4307 30.4753 32.4254 30.2193 32.1614L27.6473 29.5307C27.474 29.3534 27.4126 29.0947 27.49 28.8587C27.5673 28.6227 27.7673 28.4494 28.0126 28.408L31.314 27.8454L32.8673 24.88C32.9833 24.66 33.2113 24.5227 33.458 24.5227C33.7073 24.5227 33.9326 24.6614 34.0486 24.88L35.6006 27.8454L38.9033 28.408C39.1486 28.4494 39.3486 28.624 39.426 28.8587C39.5033 29.0934 39.442 29.3534 39.2686 29.5307L36.926 31.924L37.414 35.236C37.4486 35.4814 37.346 35.7267 37.146 35.872C36.946 36.0187 36.6793 36.0414 36.458 35.9294L33.458 34.4427L30.4566 35.9294C30.3593 35.9787 30.258 36 30.158 36Z" fill="#0DA574"/>
<path d="M16.1014 39.6279C15.9627 39.6279 15.8254 39.5852 15.7094 39.5012C15.5094 39.3559 15.4054 39.1106 15.4414 38.8639L16.0254 34.8866L13.2147 32.0119C13.0414 31.8346 12.98 31.5759 13.0574 31.3399C13.1347 31.1039 13.3347 30.9292 13.58 30.8892L17.5454 30.2146L19.4094 26.6532C19.6414 26.2132 20.36 26.2132 20.592 26.6532L22.456 30.2146L26.4214 30.8892C26.6667 30.9306 26.8667 31.1052 26.944 31.3399C27.0214 31.5746 26.96 31.8346 26.7867 32.0119L23.9747 34.8866L24.56 38.8639C24.5947 39.1092 24.492 39.3546 24.292 39.4999C24.092 39.6479 23.8254 39.6679 23.604 39.5572L20 37.7719L16.3974 39.5572C16.304 39.6039 16.2027 39.6279 16.1014 39.6279ZM15.0574 31.9892L17.2094 34.1906C17.3547 34.3399 17.4227 34.5479 17.3934 34.7532L16.9454 37.7972L19.704 36.4306C19.8894 36.3372 20.1107 36.3372 20.2947 36.4306L23.052 37.7972L22.604 34.7532C22.5747 34.5479 22.6414 34.3386 22.788 34.1906L24.9414 31.9892L21.9054 31.4719C21.7014 31.4372 21.524 31.3079 21.4267 31.1239L20 28.3972L18.5734 31.1239C18.476 31.3079 18.2987 31.4372 18.0947 31.4719L15.0574 31.9892Z" fill="#0DA574"/>
<path d="M9.95063 35.9999C9.85063 35.9999 9.75063 35.9773 9.65463 35.9306L6.65463 34.4439L3.65329 35.9319C3.43329 36.0413 3.16796 36.0199 2.96529 35.8733C2.76529 35.7279 2.66129 35.4826 2.69729 35.2373L3.18529 31.9253L0.842626 29.5319C0.669293 29.3546 0.607959 29.0959 0.685293 28.8599C0.762626 28.6239 0.962626 28.4493 1.20796 28.4093L4.51063 27.8466L6.06396 24.8813C6.17996 24.6613 6.40796 24.5239 6.65463 24.5239C6.90396 24.5239 7.12929 24.6626 7.24529 24.8813L8.79729 27.8466L12.0986 28.4093C12.344 28.4506 12.544 28.6253 12.6213 28.8599C12.6986 29.0946 12.6373 29.3546 12.464 29.5319L9.89196 32.1613C9.63729 32.4253 9.21463 32.4306 8.94929 32.1719C8.68663 31.9146 8.68129 31.4933 8.93863 31.2293L10.6213 29.5079L8.24929 29.1039C8.04396 29.0693 7.86796 28.9399 7.77063 28.7559L6.65596 26.6253L5.53996 28.7559C5.44263 28.9399 5.26529 29.0693 5.06129 29.1039L2.68796 29.5079L4.37196 31.2293C4.51729 31.3786 4.58529 31.5866 4.55596 31.7919L4.20529 34.1706L6.36129 33.1026C6.54663 33.0106 6.76796 33.0106 6.95196 33.1026L10.248 34.7359C10.5786 34.8999 10.7133 35.2986 10.5506 35.6293C10.4306 35.8639 10.1946 35.9999 9.95063 35.9999Z" fill="#0DA574"/>
</svg>
